#define ipaint_width 50
#define ipaint_height 50
static char ipaint_bits[] = {
 0x00,0x00,0x00,0x00,0x00,0x00,0x00,0x00,0x00,0x00,0x00,0x00,0x00,0x00,0x00,
 0x1f,0x00,0x00,0x00,0x00,0x00,0x80,0x20,0x00,0x00,0x00,0x00,0x00,0x80,0xc0,
 0x1f,0x00,0x00,0x00,0x00,0x80,0x00,0x10,0x00,0x00,0x00,0x00,0x80,0x00,0x10,
 0x00,0x00,0x00,0x00,0x80,0x00,0x10,0x00,0x00,0x00,0x00,0x80,0x00,0x10,0x00,
 0x00,0x00,0x00,0x80,0x00,0x10,0x00,0x00,0x00,0x00,0x80,0x00,0x10,0x00,0x00,
 0x00,0x00,0x80,0x00,0x10,0x00,0x00,0x00,0x00,0x80,0x00,0x10,0x00,0x00,0x00,
 0x00,0x80,0x00,0x10,0x00,0x00,0x00,0x00,0x80,0x00,0x10,0x00,0x00,0x00,0x00,
 0x00,0xff,0x0f,0xe0,0x03,0x00,0x00,0x00,0x00,0x00,0x10,0x04,0x00,0x00,0x00,
 0x00,0x00,0x10,0xf8,0x03,0x00,0x00,0x20,0x00,0x10,0x00,0x02,0x00,0x00,0x20,
 0x00,0x10,0x00,0x02,0x00,0x00,0x20,0x00,0x10,0x11,0x02,0x00,0x00,0x20,0x00,
 0x10,0x11,0x02,0x00,0x00,0x20,0x00,0x10,0x11,0x02,0x00,0x00,0xe0,0xff,0x13,
 0x11,0x02,0x00,0x00,0x20,0x00,0x10,0x11,0x02,0x00,0x00,0x20,0x00,0x10,0x0e,
 0x02,0x00,0x00,0x20,0x00,0x10,0x00,0x02,0x00,0x00,0x20,0x00,0x10,0x00,0x02,
 0x00,0x00,0x20,0x00,0xe0,0xff,0x01,0x00,0x00,0x20,0x00,0x00,0x00,0x00,0x00,
 0x00,0x20,0x00,0x00,0x00,0x00,0x00,0x00,0x20,0x00,0x00,0x00,0x00,0x00,0x00,
 0x20,0x00,0x00,0x00,0x00,0x00,0x00,0x20,0x00,0xc0,0x07,0x00,0x00,0x00,0x20,
 0x00,0x20,0x08,0x00,0x00,0x00,0x20,0x00,0x20,0xf0,0x07,0x00,0x00,0x20,0x00,
 0x20,0x00,0x04,0x00,0x00,0x20,0x00,0x20,0x00,0x04,0x00,0x00,0x20,0x00,0x20,
 0x22,0x04,0x00,0x00,0x20,0x00,0x20,0x22,0x04,0x00,0x00,0x20,0x00,0x20,0x22,
 0x04,0x00,0x00,0xe0,0xff,0x27,0x22,0x04,0x00,0x00,0x00,0x00,0x20,0x22,0x04,
 0x00,0x00,0x00,0x00,0x20,0x1c,0x04,0x00,0x00,0x00,0x00,0x20,0x00,0x04,0x00,
 0x00,0x00,0x00,0x20,0x00,0x04,0x00,0x00,0x00,0x00,0xe0,0xff,0x03,0x00,0x00,
 0x00,0x00,0x00,0x00,0x00,0x00,0x00,0x00,0x00,0x00,0x00,0x00,0x00,0x00,0x00,
 0x00,0x00,0x00,0x00,0x00};
