#define tree.xbm_width 16
#define tree.xbm_height 16
static char tree.xbm_bits[] = {
   0x00, 0x00, 0x7c, 0x00, 0x82, 0x00, 0x02, 0x7f, 0x02, 0x40, 0x02, 0x40,
   0x22, 0x42, 0x22, 0x42, 0x22, 0x42, 0x22, 0x42, 0x22, 0x42, 0xc2, 0x41,
   0x02, 0x40, 0x02, 0x40, 0xfc, 0x3f, 0x00, 0x00};
