#define chdir.xbm_width 24
#define chdir.xbm_height 24
static unsigned char chdir.xbm_bits[] = {
   0x00, 0x00, 0x00, 0x00, 0x00, 0x00, 0x00, 0x00, 0x00, 0x00, 0x00, 0x00,
   0x00, 0x00, 0x00, 0x00, 0xf0, 0x1f, 0x00, 0xf0, 0x3f, 0x00, 0x60, 0x60,
   0x00, 0x60, 0x60, 0xf0, 0x61, 0x60, 0xf8, 0x63, 0x60, 0x1c, 0x66, 0x60,
   0x0c, 0x66, 0x60, 0x0c, 0x60, 0x60, 0x0c, 0x60, 0x60, 0x0c, 0x60, 0x60,
   0x0c, 0x60, 0x60, 0x0c, 0xf0, 0x3f, 0x0c, 0xf0, 0x1f, 0x0c, 0x00, 0x00,
   0x1c, 0x06, 0x00, 0xf8, 0x07, 0x00, 0xf0, 0x01, 0x00, 0x00, 0x00, 0x00};
